<?xml version="1.0" standalone="no"?>
<!DOCTYPE svg PUBLIC "-//W3C//DTD SVG 20010904//EN"
 "http://www.w3.org/TR/2001/REC-SVG-20010904/DTD/svg10.dtd">
<svg version="1.0" xmlns="http://www.w3.org/2000/svg"
 width="242.000000pt" height="209.000000pt" viewBox="0 0 242.000000 209.000000"
 preserveAspectRatio="xMidYMid meet">

<g transform="translate(0.000000,209.000000) scale(0.100000,-0.100000)"
fill="#000000" stroke="none">
<path d="M1082 1951 c-108 -40 -183 -109 -232 -212 -92 -196 -3 -433 197 -527
52 -24 70 -27 163 -27 99 0 110 2 172 33 76 37 153 114 187 188 92 195 7 432
-188 526 -86 42 -215 50 -299 19z"/>
<path d="M903 1155 c-71 -31 -154 -186 -169 -316 l-7 -57 31 -7 c67 -14 133
-111 151 -220 8 -53 7 -62 -10 -81 -10 -11 -19 -27 -19 -36 0 -22 -24 -40 -44
-32 -19 7 -22 53 -3 58 6 3 25 7 41 11 28 6 28 7 22 58 -3 29 -21 81 -39 116
-57 114 -150 141 -234 68 -42 -37 -71 -96 -83 -170 -9 -56 0 -77 30 -77 26 0
46 -28 34 -48 -6 -9 -15 -17 -20 -19 -16 -5 -37 14 -39 35 -1 11 -7 28 -14 36
-19 22 -9 111 19 173 24 55 70 107 110 123 24 10 28 18 33 74 7 76 37 160 82
226 40 60 28 56 -79 -24 -131 -98 -242 -269 -286 -441 -28 -110 -26 -134 15
-187 79 -104 227 -200 379 -247 225 -69 587 -69 812 0 156 48 317 155 389 259
29 41 29 42 17 111 -26 154 -103 300 -221 422 -57 60 -185 157 -206 157 -4 0
7 -16 24 -35 36 -41 73 -111 91 -171 10 -34 20 -44 52 -59 30 -13 45 -28 59
-60 24 -53 17 -96 -22 -135 -54 -54 -128 -51 -179 6 -24 28 -30 44 -30 80 0
39 5 51 33 78 17 18 38 35 45 37 18 6 -15 102 -58 169 -30 47 -121 140 -137
140 -4 0 -66 -104 -138 -230 -115 -205 -131 -229 -143 -213 -7 10 -63 113
-125 230 -62 117 -116 212 -122 212 -5 0 -24 -6 -42 -14z m565 -592 c3 -43 3
-43 43 -43 38 0 39 -1 39 -35 0 -34 -1 -35 -40 -35 l-40 0 0 -40 0 -40 -40 0
-40 0 0 40 0 40 -40 0 c-39 0 -40 1 -40 35 0 34 1 35 40 35 40 0 40 0 40 38 0
47 6 54 45 50 28 -3 30 -6 33 -45z"/>
<path d="M1651 794 c-43 -54 -10 -124 58 -124 46 0 81 33 81 76 0 69 -97 102
-139 48z"/>
</g>
</svg>
